<?xml version="1.0" encoding="utf-8"?>
<!-- Generator: Adobe Illustrator 18.1.1, SVG Export Plug-In . SVG Version: 6.00 Build 0)  -->
<svg version="1.1" id="Layer_1" xmlns="http://www.w3.org/2000/svg" xmlns:xlink="http://www.w3.org/1999/xlink" x="0px" y="0px"
	 viewBox="0 0 401.3 120.7" enable-background="new 0 0 401.3 120.7" xml:space="preserve">
<g>
	<g>
		<path fill="#808080" d="M45.4,73.6c0,0-8.8,27.7-9.1,28.4c-0.8-2.6-5.5-19.8-6.2-22.4c-0.4-1.3-0.7-3.3-0.7-4
			c0-1.1,0.2-1.8,0.3-2.1l0.1-0.3c0,0-2.2,0.3-3.7,0.5c-1.2,0.2-3.5,0.6-3.5,0.6l0.2,0.2c0.8,1,1.1,1.8,2.1,5.2l9.8,32.9h0.6
			c0,0,9-27.5,9.2-28.1c0.2,0.6,9.5,28.1,9.5,28.1h0.6l9.9-32.9c1.1-3.4,1.7-4.6,2.4-5.4l0.2-0.2c-0.3-0.1-1.3-0.3-2.6-0.6
			c-1.3-0.3-2.5-0.5-2.5-0.5l0.1,0.4c0,0,0.3,0.5,0.3,1.5c0,0.8-0.3,2.8-0.8,4.7c0,0-6.1,21.6-6.3,22.3c-0.2-0.7-9.6-28.5-9.6-28.5
			H45.4z M67.6,28.8l0.1,0.2c1.2,2.6,1.9,5.3,1.9,12c0,0-0.4,20.1-0.4,20.4c-1.3-0.3-13.3-2.5-24.5-2.5c-11.6,0-23.2,2.2-24.5,2.5
			c0-0.3,0-20.4,0-20.4c0-6.6,0.9-9.2,2.1-12l0.1-0.2H11.2l0.1,0.2c1.2,2.6,1.9,5.3,1.9,12l0,51c0,6.7-1,9.3-2,12l-0.1,0.2h11
			L22,104c-1.2-2.6-1.9-5.3-1.9-12c0,0,0-25.2,0-25.4C21,66.3,30.8,64,44.6,64c13.5,0,23.7,2.4,24.5,2.6c0,0.2,0.4,25.4,0.4,25.4
			c0,6.7-0.7,9.3-1.8,12l-0.1,0.2h10.8l-0.1-0.2c-1.2-2.6-1.9-5.3-1.9-12l0-51c0-6.6,0.9-9.2,2.1-12l0.1-0.2H67.6z M42.1,8.6L42,8.8
			c-0.7,1.4-1.1,2.9-1.1,6.5c0,0-0.1,30.8-0.1,31.1c1.6-0.1,4.4-0.1,5.3-0.1c5.1,0,10.5,0.8,12.9-1.5l0.2,0l-1.9,5.1
			c-2.9-0.3-7-0.7-11.1-0.7c-3.7,0-6.5,0.1-11.6,0.5l-0.2,0l0.1-0.2c0.6-1.5,1.1-2.8,1.1-6.5l0-27.7c0-3.6-0.4-5.1-1-6.5l-0.1-0.2
			H42.1z"/>
	</g>
	<g>
		<path fill="#808080" d="M171.9,55.3h-5.4V41.9h5.3c4.8,0,6.9,2.3,6.9,6.6C178.8,52.4,176.7,55.3,171.9,55.3 M171.9,40.1h-9.2
			c0.4,0.6,0.5,1.2,0.5,2.7l0,11.7c0,1.5-0.3,2.1-0.6,2.8h9.3c5.3,0,10.1-2.8,10.1-8.8C182,41.3,176.4,40.1,171.9,40.1 M218.5,42.8
			c0-1.5,0.2-2.2,0.5-2.8h-3c0.3,0.6,0.5,1.2,0.5,2.8v10.5L205.4,40c0,0-4.1,0-4.1,0c0.3,0.6,0.6,1.2,0.6,2.8l0,11.7
			c0,1.5-0.2,2.2-0.5,2.8h2.9c-0.3-0.6-0.6-1.2-0.6-2.8V43.1l11.8,14.2h2.9V42.8z M111.7,54.5c-1.2,0.9-4.6,0.8-7.5,0.8
			c-0.9,0-3.1,0-3.1,0l0-12.5c0-1.6,0.3-2.2,0.6-2.8c0,0-4.2,0-4.2,0c0.4,0.6,0.5,1.2,0.5,2.8v11.7c0,1.6-0.3,2.1-0.6,2.8h13.6
			L111.7,54.5z M375.7,54.5c-1.2,0.9-4.6,0.8-7.5,0.8c-0.9,0-3.1,0-3.1,0l0-12.5c0-1.6,0.3-2.2,0.6-2.8c0,0-4.2,0-4.2,0
			c0.4,0.6,0.5,1.2,0.5,2.8v11.7c0,1.6-0.3,2.1-0.6,2.8h13.6L375.7,54.5z M192.6,42.8c0-1.6,0.3-2.1,0.6-2.8H189
			c0.4,0.6,0.5,1.2,0.5,2.8l0,11.7c0,1.6-0.3,2.1-0.6,2.8h4.2c-0.4-0.6-0.5-1.2-0.5-2.8L192.6,42.8z M387.8,39.9
			c-4.1-0.1-7.6,1-7.9,4.3c-0.1,0.8,0.1,1.8,0.7,2.5c2.2,2.7,8,2.8,10.4,4.6c0.7,0.5,1,1.3,0.9,1.9c-0.2,1.9-2.7,2.5-5.7,2.4
			c-4.1-0.1-6.1-1.6-6.7-2.2c0,0.1,0.1,2.8,0.1,2.8c1.3,0.5,3.7,1.2,6.6,1.3c4.6,0.1,8.6-1.1,9-4.8c0.1-0.8-0.1-2-0.8-2.8
			c-1.4-1.7-4.1-2.3-6.7-3.1c-2.4-0.8-4.6-1.2-4.6-2.9c0-1.5,2.4-2.1,4.6-2.1c1.7,0,3.6,0.3,5,0.9c0.6,0.3,1.2,0.5,1.7,1l0-2.6
			C392.7,40.4,389.9,39.9,387.8,39.9 M292.7,48.5c0,2.3,0.7,4.1,2.5,5.7c0.9,0.8,2.5,1.5,4.9,1.5c2.3,0,3.8-0.5,5-1.5
			c1.7-1.5,2.5-3.5,2.5-5.6c0-2.4-0.8-4.3-2.6-5.6c-1.2-0.8-2.7-1.3-4.8-1.3c-2.3,0-3.8,0.6-4.8,1.3C293.8,44,292.7,46,292.7,48.5
			 M300.1,39.8c3.5,0,6.7,1.1,8.6,3.1c1.3,1.4,2.1,3.4,2.1,5.7c0,1.6-0.8,4-2.1,5.4c-2.3,2.6-5.1,3.6-8.6,3.6
			c-3.6,0-6.8-1.3-8.7-3.6c-1.3-1.5-2.1-3.5-2-5.5c0-2.2,0.9-4.1,2.4-5.6C293.9,40.7,296.8,39.8,300.1,39.8 M281.8,42.8
			c0-1.6,0.3-2.2,0.6-2.8c0,0-4.2,0-4.2,0c0.4,0.6,0.5,1.2,0.5,2.8v4.3h-10.8v-4.3c0-1.6,0.3-2.2,0.6-2.8c0,0-4.2,0-4.2,0
			c0.4,0.6,0.5,1.2,0.5,2.8v11.7c0,1.6-0.3,2.1-0.6,2.8h4.2c-0.3-0.6-0.5-1.2-0.5-2.8V49h10.8l0,5.5c0,1.6-0.3,2.1-0.6,2.8h4.2
			c-0.4-0.6-0.5-1.2-0.5-2.8L281.8,42.8z M346.5,55.3c-1,0-5,0-5.1-0.1l0-6.3c1.9,0,8.4,0,9.5,0.5v-2.9c-0.8,0.7-7.1,0.6-9.5,0.5
			v-5.1c0,0,8.8-0.2,10.8,0.3c0.6,0.1,1,0.4,1,0.4c0-0.1,0-2.5,0-2.5h-15.4c0.4,0.6,0.5,1.2,0.5,2.8v11.7c0,1.5-0.2,2.1-0.6,2.8
			l15.7,0l0.6-2.7C352.7,55.4,349.4,55.3,346.5,55.3 M125.1,55.3c-1,0-4.9,0-5.1-0.1l0-6.3c1.9,0,8.5,0,9.5,0.5v-2.9
			c-0.8,0.7-7.1,0.6-9.5,0.5v-5.1c0,0,8.9-0.2,10.8,0.3c0.6,0.1,1,0.4,1,0.4c0-0.1,0-2.5,0-2.5h-15.4c0.4,0.6,0.5,1.2,0.5,2.8v11.7
			c0,1.5-0.2,2.1-0.6,2.8l15.7,0l0.6-2.7C131.4,55.4,128,55.3,125.1,55.3 M324.8,41.9l3.7,0c1.5,0,2.6,0.1,3,0.7V40h-16.6v2.5
			c0.5-0.6,1.7-0.7,3-0.7l3.7,0v12.6c0,1.5-0.3,2.1-0.6,2.8c0,0,4.2,0,4.2,0c-0.4-0.6-0.5-1.2-0.5-2.8V41.9z M245,41.4
			c-1.8-1-4.9-1.6-7.6-1.6c-4.2,0-6.9,1.2-8.7,2.5c-2,1.5-3.2,3.7-3.2,6.1c0,2.3,1.2,4.6,3.1,6.1c2.3,1.8,5.1,2.9,8.8,2.9
			c3,0,5.2-0.6,7.5-2v-7l-3.7,0c0.3,0.3,0.6,0.9,0.6,2.4l-0.1,3.9c-1.2,0.7-2.6,0.9-4.4,0.9c-3,0-5.3-0.9-6.7-2.4
			c-1.4-1.4-2-2.8-2-4.6c0-1.8,0.8-3.3,2.1-4.5c1.8-1.7,4-2.3,6.6-2.3c2.4,0,4.8,0.6,6.5,1.7c0.4,0.3,0.8,0.5,1.1,0.7V41.4z
			 M142.2,50.6h7.4l-3.7-7.2L142.2,50.6z M147.6,40.1l8.4,15.4c0.5,0.8,1,1.4,1.5,1.8c-0.2,0-5.3,0-5.3,0c0.3-0.5,0.3-1.1-0.1-1.9
			l-1.6-2.9h-9.3l-1.7,3.3c-0.4,0.7-0.2,1.2,0,1.6H136c0.5-0.4,0.9-1,1.2-1.5l8.4-15.6L147.6,40.1z"/>
		<g>
			<path fill="#808080" d="M108.1,75.8c3.5,0,6.7,1.1,8.6,3.1c1.3,1.4,2.1,3.4,2.1,5.7c0,1.6-0.8,4-2.1,5.4
				c-2.3,2.6-5.1,3.6-8.6,3.6c-3.6,0-6.8-1.3-8.7-3.6c-1.3-1.5-2.1-3.5-2-5.5c0-2.2,0.9-4.1,2.4-5.6C102,76.8,104.8,75.8,108.1,75.8
				 M100.8,84.5c0,2.3,0.7,4.1,2.5,5.6c0.9,0.8,2.5,1.5,4.9,1.5c2.3,0,3.8-0.5,5-1.5c1.7-1.5,2.5-3.5,2.5-5.6c0-2.3-0.8-4.3-2.6-5.6
				c-1.2-0.8-2.7-1.3-4.8-1.3c-2.4,0-3.8,0.6-4.8,1.3C101.8,80,100.8,82,100.8,84.5"/>
			<path fill="#808080" d="M129.4,90.6l0-5.6c1.9,0,8.6,0,9.6,0.5v-2.9c-0.8,0.7-7.2,0.6-9.6,0.5v-5c0,0,8.6-0.2,10.5,0.3
				c0.6,0.1,0.9,0.4,0.9,0.4c0,0,0-2.6,0-2.6h-15.1c0.4,0.6,0.5,1.2,0.5,2.7l0,11.6c0,1.5-0.2,2.1-0.6,2.7h4.2
				C129.5,92.6,129.4,92.1,129.4,90.6"/>
			<path fill="#808080" d="M354,76.2c4.4,0,9.9,1.2,9.9,8.2c0,5.8-4.7,8.6-9.9,8.6h-9.1c0.3-0.6,0.6-1.2,0.6-2.7V78.9
				c0-1.5-0.2-2.1-0.5-2.7H354 M354,91c4.8,0,6.7-2.8,6.7-6.6c0-4.2-2.1-6.4-6.8-6.4h-5.2v13H354"/>
			<path fill="#808080" d="M280.7,75.8c3.5,0,6.6,1.1,8.5,3c1.3,1.3,2.1,3.3,2.1,5.6c0,1.6-0.8,3.9-2.1,5.3c-2.2,2.5-5,3.6-8.5,3.6
				c-3.5,0-6.7-1.2-8.6-3.5c-1.2-1.5-2-3.5-2-5.4c0-2.2,0.9-4,2.4-5.5C274.6,76.7,277.5,75.8,280.7,75.8 M273.5,84.4
				c0,2.3,0.7,4,2.5,5.6c0.9,0.8,2.5,1.5,4.8,1.5c2.3,0,3.7-0.5,4.9-1.5c1.7-1.4,2.5-3.5,2.5-5.5c0-2.3-0.8-4.2-2.6-5.5
				c-1.2-0.8-2.6-1.3-4.7-1.3c-2.3,0-3.8,0.6-4.7,1.3C274.5,79.9,273.5,81.9,273.5,84.4"/>
			<path fill="#808080" d="M337.9,90.3c-1.2,0.9-4.4,0.8-7.3,0.8c-0.9,0-3,0-3,0l0-12.2c0-1.5,0.3-2.1,0.6-2.7H324
				c0.4,0.6,0.5,1.2,0.5,2.7v11.3c0,1.5-0.3,2.1-0.6,2.7h13.3L337.9,90.3z"/>
			<path fill="#808080" d="M315.3,91.2c0.8,1,1.7,1.7,1.7,1.7s-3.7,0.1-4.4,0c0,0-1.3-1.7-2.7-3.9c-1.5-2.5-2.4-3.5-3.7-3.9
				c-0.8-0.2-2.8-0.2-3.8-0.2v5.3c0,1.5,0.2,2.1,0.7,2.7h-4.6c0.4-0.6,0.7-1.2,0.7-2.7V78.8c0-1.5-0.2-2.1-0.7-2.7h5.7
				c5.6,0,10.4,0,10.4,4.2c0,3.6-3.6,4.2-4.6,4.2c0.4,0,0.9,0.6,1.4,1.2C312.2,86.7,313.6,88.9,315.3,91.2 M308.7,83
				c1.9-0.4,2.6-1.2,2.6-2.7c0-1.4-1.4-2-2.6-2.3c-1.1-0.2-2.8-0.2-4-0.2c-0.7,0-2.3,0-2.4,0l0,5.3c0.1,0,2.3,0,2.3,0
				C306.4,83.2,307.7,83.2,308.7,83"/>
			<path fill="#808080" d="M266.3,76.2h-3.2c0,0,0.6,0.4-0.2,2.4l-3.9,9.6l-5.6-12.1h-0.6l-5.4,12.4c0,0-3.4-8.7-3.9-10
				c-0.7-1.7-0.1-2.3-0.1-2.3h-4.5c0.5,0.5,0.7,0.8,1.4,2.4l6.1,14.5h0.9l5.3-11.7l5.7,11.7h0.6l6.2-14.5
				C265.5,77.2,265.8,76.7,266.3,76.2"/>
			<path fill="#808080" d="M165.8,77.7h3.9c1.5,0,2.7,0.1,3.2,0.7v-2.6h-17.2v2.6c0.5-0.6,1.8-0.7,3.2-0.7h3.8v13
				c0,1.6-0.3,2.2-0.6,2.8c0,0,4.4,0,4.4,0c-0.4-0.6-0.6-1.3-0.6-2.8V77.7z"/>
			<path fill="#808080" d="M217.2,91.6c-1,0-5.1,0-5.3-0.1l0-6.5c2,0,8.8,0,9.9,0.5v-3c-0.8,0.7-7.3,0.6-9.9,0.6l0-5.3
				c0,0,9.2-0.2,11.2,0.3c0.6,0.1,1,0.4,1,0.4c0-0.1,0-2.6,0-2.6h-16c0.4,0.6,0.6,1.3,0.6,2.9l0,12.1c0,1.6-0.2,2.2-0.6,2.8l16.3,0
				l0.6-2.8C223.7,91.7,220.3,91.6,217.2,91.6"/>
			<path fill="#808080" d="M197.8,78.6c0-1.6,0.3-2.2,0.6-2.9c0,0-4.4,0-4.4,0c0.4,0.6,0.6,1.3,0.6,2.9v4.4h-11.2v-4.4
				c0-1.6,0.3-2.2,0.6-2.9c0,0-4.4,0-4.4,0c0.4,0.6,0.6,1.3,0.6,2.9l0,12.1c0,1.6-0.3,2.2-0.6,2.8h4.4c-0.4-0.6-0.6-1.3-0.6-2.8V85
				h11.2v5.7c0,1.6-0.3,2.2-0.6,2.8h4.4c-0.4-0.6-0.6-1.3-0.6-2.8L197.8,78.6z"/>
			<g>
				<path fill="#808080" d="M369.4,78.2h0.6c0.3,0,0.5,0,0.6,0.1c0.1,0,0.2,0.1,0.2,0.2c0.1,0.1,0.1,0.2,0.1,0.3
					c0,0.2-0.1,0.3-0.2,0.4c-0.1,0.1-0.3,0.1-0.7,0.1h-0.7V78.2z M369.4,81.3v-1.5h0.3c0.2,0,0.3,0,0.5,0.1c0.2,0.1,0.3,0.4,0.6,0.8
					l0.3,0.6h0.7l-0.4-0.7c-0.2-0.3-0.4-0.6-0.5-0.7c-0.1-0.1-0.2-0.1-0.3-0.2c0.3,0,0.5-0.1,0.7-0.3c0.2-0.2,0.3-0.4,0.3-0.7
					c0-0.2-0.1-0.3-0.2-0.5c-0.1-0.2-0.3-0.3-0.4-0.3c-0.2-0.1-0.5-0.1-0.9-0.1h-1.2v3.5H369.4z M371.6,77.1c0.4,0.2,0.8,0.6,1,1
					c0.2,0.4,0.4,0.9,0.4,1.4c0,0.5-0.1,0.9-0.4,1.3c-0.2,0.4-0.6,0.8-1,1c-0.4,0.2-0.9,0.4-1.3,0.4c-0.5,0-0.9-0.1-1.3-0.4
					c-0.4-0.2-0.8-0.6-1-1c-0.2-0.4-0.4-0.9-0.4-1.3c0-0.5,0.1-0.9,0.4-1.4c0.2-0.4,0.6-0.8,1-1c0.4-0.2,0.9-0.4,1.3-0.4
					C370.7,76.7,371.1,76.9,371.6,77.1 M368.6,76.6c-0.5,0.3-0.9,0.7-1.2,1.2c-0.3,0.5-0.4,1.1-0.4,1.6c0,0.6,0.1,1.1,0.4,1.6
					c0.3,0.5,0.7,0.9,1.2,1.2c0.5,0.3,1.1,0.4,1.6,0.4c0.6,0,1.1-0.1,1.6-0.4c0.5-0.3,0.9-0.7,1.2-1.2c0.3-0.5,0.4-1.1,0.4-1.6
					c0-0.6-0.1-1.1-0.4-1.6c-0.3-0.5-0.7-0.9-1.2-1.2c-0.5-0.3-1.1-0.4-1.6-0.4C369.7,76.2,369.1,76.3,368.6,76.6"/>
			</g>
		</g>
	</g>
</g>
</svg>
